<?xml version="1.0" encoding="UTF-8" standalone="no"?>
<!DOCTYPE svg PUBLIC "-//W3C//DTD SVG 1.1//EN" "http://www.w3.org/Graphics/SVG/1.1/DTD/svg11.dtd">
<svg width="100%" height="100%" viewBox="0 0 1080 1080" version="1.1" xmlns="http://www.w3.org/2000/svg" xmlns:xlink="http://www.w3.org/1999/xlink" xml:space="preserve" xmlns:serif="http://www.serif.com/" style="fill-rule:evenodd;clip-rule:evenodd;stroke-linejoin:round;stroke-miterlimit:2;">
    <g transform="matrix(27,0,0,27,-20925,-8572.5)">
        <rect x="787.5" y="330" width="15" height="15"/>
    </g>
    <g transform="matrix(9,0,0,9,-6885,-2565)">
        <rect x="780" y="300" width="15" height="15"/>
    </g>
    <g transform="matrix(9,0,0,9,-6547.5,-1957.5)">
        <rect x="780" y="300" width="15" height="15"/>
    </g>
    <g transform="matrix(9,0,0,9,-6277.5,-2227.5)">
        <rect x="780" y="300" width="15" height="15"/>
    </g>
    <g transform="matrix(9,0,0,9,-6547.5,-2497.5)">
        <rect x="780" y="300" width="15" height="15"/>
    </g>
    <g transform="matrix(9,0,0,9,-6817.5,-2227.5)">
        <rect x="780" y="300" width="15" height="15"/>
    </g>
    <g transform="matrix(9,0,0,9,-6885,-1890)">
        <rect x="780" y="300" width="15" height="15"/>
    </g>
    <g transform="matrix(9,0,0,9,-6210,-2565)">
        <rect x="780" y="300" width="15" height="15"/>
    </g>
    <g transform="matrix(9,0,0,9,-6210,-1890)">
        <rect x="780" y="300" width="15" height="15"/>
    </g>
    <g transform="matrix(36,0,0,9,-27810,-2700)">
        <rect x="780" y="300" width="15" height="15"/>
    </g>
    <g transform="matrix(36,0,0,9,-27810,-1755)">
        <rect x="780" y="300" width="15" height="15"/>
    </g>
    <g transform="matrix(2.20436e-15,36,-9,5.51091e-16,3780,-27810)">
        <rect x="780" y="300" width="15" height="15"/>
    </g>
    <g transform="matrix(2.20436e-15,36,-9,5.51091e-16,2835,-27810)">
        <rect x="780" y="300" width="15" height="15"/>
    </g>
</svg>
